<svg class="svg-icon" style="width: 1em;height: 1em;vertical-align: middle;fill: currentColor;overflow: hidden;" viewBox="0 0 1024 1024" version="1.1" xmlns="http://www.w3.org/2000/svg"><path d="M512 0a512 512 0 1 1 0 1024A512 512 0 0 1 512 0z m0 85.357714a426.642286 426.642286 0 1 0 0 853.284572A426.642286 426.642286 0 0 0 512 85.357714z m-2.998857 242.102857l6.509714 0.585143c16.822857 3.072 29.476571 17.773714 29.476572 35.474286v350.061714h85.211428c19.894857 0 35.986286 16.091429 35.986286 35.986286l-0.585143 6.509714a35.986286 35.986286 0 0 1-35.401143 29.549715H387.803429a35.986286 35.986286 0 0 1-35.986286-36.059429l0.585143-6.436571a35.986286 35.986286 0 0 1 35.401143-29.549715h85.211428V399.506286h-59.977143a35.986286 35.986286 0 0 1-36.059428-35.986286l0.585143-6.509714a35.986286 35.986286 0 0 1 35.401142-29.476572H509.074286zM509.586286 219.428571a36.571429 36.571429 0 1 1 0 73.142858 36.571429 36.571429 0 0 1 0-73.142858z"  /></svg>