<svg class="svg-icon" style="width: 1em;height: 1em;vertical-align: middle;fill: currentColor;overflow: hidden;" viewBox="0 0 1024 1024" version="1.1" xmlns="http://www.w3.org/2000/svg"><path d="M512 1024A512 512 0 1 1 512 0a512 512 0 0 1 0 1024zM512 85.357714a426.642286 426.642286 0 1 0 0 853.284572A426.642286 426.642286 0 0 0 512 85.357714zM512 227.474286c26.185143 0 47.396571 22.454857 47.396571 50.249143v301.129142c0 27.794286-21.211429 50.176-47.396571 50.176-26.185143 0-47.396571-22.454857-47.396571-50.176V277.723429c0-27.721143 21.211429-50.176 47.396571-50.176z m0 468.553143c26.185143 0 47.396571 22.528 47.396571 50.102857 0 27.794286-21.211429 50.322286-47.396571 50.322285-26.185143 0-47.396571-22.528-47.396571-50.249142 0-27.721143 21.211429-50.249143 47.396571-50.249143z"  /></svg>