<svg class="svg-icon" style="width: 1em;height: 1em;vertical-align: middle;fill: currentColor;overflow: hidden;" viewBox="0 0 1024 1024" version="1.1" xmlns="http://www.w3.org/2000/svg"><path d="M512 0a512 512 0 1 1 0 1024A512 512 0 0 1 512 0z m0 85.357714a426.642286 426.642286 0 1 0 0 853.284572A426.642286 426.642286 0 0 0 512 85.357714z m274.285714 234.788572c11.264 11.483429 11.849143 44.470857-0.073143 55.515428l-330.605714 340.187429a30.500571 30.500571 0 0 1-20.626286 8.192c-8.484571 2.194286-15.872-3.218286-21.504-8.923429L247.515429 514.340571c-11.410286-11.702857-11.922286-44.397714 0-55.442285 11.849143-11.190857 46.08-11.702857 57.490285 0L435.712 626.102857l292.937143-306.029714c11.922286-11.044571 46.08-11.483429 57.563428 0z"  /></svg>