<svg width="16" height="17" viewBox="0 0 16 17" fill="none" xmlns="http://www.w3.org/2000/svg">
<path d="M5.66665 7.16667C5.40294 7.16667 5.14515 7.24487 4.92589 7.39137C4.70662 7.53788 4.53572 7.74612 4.43481 7.98976C4.33389 8.23339 4.30749 8.50148 4.35893 8.76012C4.41038 9.01876 4.53737 9.25634 4.72384 9.44281C4.91031 9.62928 5.14789 9.75627 5.40653 9.80771C5.66517 9.85916 5.93326 9.83276 6.17689 9.73184C6.42053 9.63092 6.62876 9.46003 6.77527 9.24076C6.92178 9.0215 6.99998 8.76371 6.99998 8.5C6.99998 8.14638 6.8595 7.80724 6.60946 7.55719C6.35941 7.30714 6.02027 7.16667 5.66665 7.16667ZM5.66665 11.8333C5.40294 11.8333 5.14515 11.9115 4.92589 12.058C4.70662 12.2045 4.53572 12.4128 4.43481 12.6564C4.33389 12.9001 4.30749 13.1681 4.35893 13.4268C4.41038 13.6854 4.53737 13.923 4.72384 14.1095C4.91031 14.2959 5.14789 14.4229 5.40653 14.4744C5.66517 14.5258 5.93326 14.4994 6.17689 14.3985C6.42053 14.2976 6.62876 14.1267 6.77527 13.9074C6.92178 13.6882 6.99998 13.4304 6.99998 13.1667C6.99998 12.813 6.8595 12.4739 6.60946 12.2239C6.35941 11.9738 6.02027 11.8333 5.66665 11.8333ZM10.3333 5.16667C10.597 5.16667 10.8548 5.08847 11.0741 4.94196C11.2933 4.79545 11.4642 4.58721 11.5652 4.34358C11.6661 4.09994 11.6925 3.83185 11.641 3.57321C11.5896 3.31457 11.4626 3.07699 11.2761 2.89052C11.0897 2.70405 10.8521 2.57707 10.5934 2.52562C10.3348 2.47417 10.0667 2.50058 9.82307 2.60149C9.57943 2.70241 9.3712 2.87331 9.22469 3.09257C9.07818 3.31184 8.99998 3.56963 8.99998 3.83333C8.99998 4.18696 9.14046 4.52609 9.3905 4.77614C9.64055 5.02619 9.97969 5.16667 10.3333 5.16667ZM5.66665 2.5C5.40294 2.5 5.14515 2.5782 4.92589 2.72471C4.70662 2.87122 4.53572 3.07945 4.43481 3.32309C4.33389 3.56672 4.30749 3.83481 4.35893 4.09345C4.41038 4.3521 4.53737 4.58967 4.72384 4.77614C4.91031 4.96261 5.14789 5.0896 5.40653 5.14105C5.66517 5.19249 5.93326 5.16609 6.17689 5.06517C6.42053 4.96426 6.62876 4.79336 6.77527 4.57409C6.92178 4.35483 6.99998 4.09704 6.99998 3.83333C6.99998 3.47971 6.8595 3.14057 6.60946 2.89052C6.35941 2.64048 6.02027 2.5 5.66665 2.5ZM10.3333 11.8333C10.0696 11.8333 9.81182 11.9115 9.59255 12.058C9.37329 12.2045 9.20239 12.4128 9.10147 12.6564C9.00056 12.9001 8.97415 13.1681 9.0256 13.4268C9.07705 13.6854 9.20403 13.923 9.3905 14.1095C9.57697 14.2959 9.81455 14.4229 10.0732 14.4744C10.3318 14.5258 10.5999 14.4994 10.8436 14.3985C11.0872 14.2976 11.2954 14.1267 11.4419 13.9074C11.5884 13.6882 11.6666 13.4304 11.6666 13.1667C11.6666 12.813 11.5262 12.4739 11.2761 12.2239C11.0261 11.9738 10.6869 11.8333 10.3333 11.8333ZM10.3333 7.16667C10.0696 7.16667 9.81182 7.24487 9.59255 7.39137C9.37329 7.53788 9.20239 7.74612 9.10147 7.98976C9.00056 8.23339 8.97415 8.50148 9.0256 8.76012C9.07705 9.01876 9.20403 9.25634 9.3905 9.44281C9.57697 9.62928 9.81455 9.75627 10.0732 9.80771C10.3318 9.85916 10.5999 9.83276 10.8436 9.73184C11.0872 9.63092 11.2954 9.46003 11.4419 9.24076C11.5884 9.0215 11.6666 8.76371 11.6666 8.5C11.6666 8.14638 11.5262 7.80724 11.2761 7.55719C11.0261 7.30714 10.6869 7.16667 10.3333 7.16667Z" fill="#222222"/>
</svg>
