<svg width="16" height="16" viewBox="0 0 16 16" fill="none" xmlns="http://www.w3.org/2000/svg">
<path d="M4.66668 10.6667C4.53482 10.6667 4.40593 10.7058 4.2963 10.779C4.18666 10.8523 4.10122 10.9564 4.05076 11.0782C4.0003 11.2 3.9871 11.3341 4.01282 11.4634C4.03854 11.5927 4.10204 11.7115 4.19527 11.8047C4.28851 11.898 4.4073 11.9615 4.53662 11.9872C4.66594 12.0129 4.79998 11.9997 4.9218 11.9493C5.04362 11.8988 5.14774 11.8134 5.22099 11.7037C5.29424 11.5941 5.33334 11.4652 5.33334 11.3333C5.33334 11.1565 5.26311 10.987 5.13808 10.8619C5.01306 10.7369 4.84349 10.6667 4.66668 10.6667ZM12.7067 8.00001L13.5267 7.18001C13.9012 6.80501 14.1116 6.29668 14.1116 5.76668C14.1116 5.23668 13.9012 4.72834 13.5267 4.35334L11.64 2.47334C11.265 2.09881 10.7567 1.88844 10.2267 1.88844C9.69668 1.88844 9.18834 2.09881 8.81334 2.47334L8.00001 3.29334C7.98954 2.76987 7.77421 2.27138 7.40027 1.90492C7.02632 1.53845 6.52358 1.33324 6.00001 1.33334H3.33334C2.80291 1.33334 2.2942 1.54406 1.91913 1.91913C1.54406 2.2942 1.33334 2.80291 1.33334 3.33334V12.6667C1.33334 13.1971 1.54406 13.7058 1.91913 14.0809C2.2942 14.456 2.80291 14.6667 3.33334 14.6667H12.6667C13.1971 14.6667 13.7058 14.456 14.0809 14.0809C14.456 13.7058 14.6667 13.1971 14.6667 12.6667V10C14.6668 9.47644 14.4616 8.9737 14.0951 8.59975C13.7286 8.22581 13.2301 8.01048 12.7067 8.00001ZM6.66668 12.6667C6.66668 12.8435 6.59644 13.0131 6.47141 13.1381C6.34639 13.2631 6.17682 13.3333 6.00001 13.3333H3.33334C3.15653 13.3333 2.98696 13.2631 2.86194 13.1381C2.73691 13.0131 2.66668 12.8435 2.66668 12.6667V3.33334C2.66668 3.15653 2.73691 2.98696 2.86194 2.86194C2.98696 2.73691 3.15653 2.66668 3.33334 2.66668H6.00001C6.17682 2.66668 6.34639 2.73691 6.47141 2.86194C6.59644 2.98696 6.66668 3.15653 6.66668 3.33334V12.6667ZM8.00001 5.17334L9.76001 3.41334C9.88492 3.28918 10.0539 3.21948 10.23 3.21948C10.4061 3.21948 10.5751 3.28918 10.7 3.41334L12.5867 5.33334C12.7108 5.45825 12.7805 5.62722 12.7805 5.80334C12.7805 5.97947 12.7108 6.14844 12.5867 6.27334L10.6667 8.19334L8.00001 10.8267V5.17334ZM13.3333 12.6667C13.3333 12.8435 13.2631 13.0131 13.1381 13.1381C13.0131 13.2631 12.8435 13.3333 12.6667 13.3333H7.88001C7.9484 13.1358 7.98661 12.929 7.99334 12.72L11.38 9.33334H12.6667C12.8435 9.33334 13.0131 9.40358 13.1381 9.52861C13.2631 9.65363 13.3333 9.8232 13.3333 10V12.6667Z" fill="currentcolor"/>
</svg>
