<svg width="16" height="16" viewBox="0 0 16 16" fill="none" xmlns="http://www.w3.org/2000/svg">
<path d="M12.6667 7.33332H8.66666V3.33332C8.66666 3.15651 8.59642 2.98694 8.47139 2.86192C8.34637 2.73689 8.1768 2.66666 7.99999 2.66666C7.82318 2.66666 7.65361 2.73689 7.52859 2.86192C7.40356 2.98694 7.33332 3.15651 7.33332 3.33332V7.33332H3.33332C3.15651 7.33332 2.98694 7.40356 2.86192 7.52859C2.73689 7.65361 2.66666 7.82318 2.66666 7.99999C2.66666 8.1768 2.73689 8.34637 2.86192 8.47139C2.98694 8.59642 3.15651 8.66666 3.33332 8.66666H7.33332V12.6667C7.33332 12.8435 7.40356 13.013 7.52859 13.1381C7.65361 13.2631 7.82318 13.3333 7.99999 13.3333C8.1768 13.3333 8.34637 13.2631 8.47139 13.1381C8.59642 13.013 8.66666 12.8435 8.66666 12.6667V8.66666H12.6667C12.8435 8.66666 13.013 8.59642 13.1381 8.47139C13.2631 8.34637 13.3333 8.1768 13.3333 7.99999C13.3333 7.82318 13.2631 7.65361 13.1381 7.52859C13.013 7.40356 12.8435 7.33332 12.6667 7.33332Z" fill="currentColor"/>
</svg>
