<svg width="16" height="16" viewBox="0 0 16 16" fill="none" xmlns="http://www.w3.org/2000/svg">
<g clip-path="url(#clip0_209_28)">
<path d="M14.6667 9.99999H13.3334V7.99999C13.3334 7.82318 13.2631 7.65361 13.1381 7.52859C13.0131 7.40356 12.8435 7.33332 12.6667 7.33332H8.66669V5.99999H10C10.1768 5.99999 10.3464 5.92975 10.4714 5.80473C10.5964 5.6797 10.6667 5.51013 10.6667 5.33332V1.33332C10.6667 1.15651 10.5964 0.986943 10.4714 0.861919C10.3464 0.736894 10.1768 0.666656 10 0.666656H6.00002C5.82321 0.666656 5.65364 0.736894 5.52862 0.861919C5.40359 0.986943 5.33335 1.15651 5.33335 1.33332V5.33332C5.33335 5.51013 5.40359 5.6797 5.52862 5.80473C5.65364 5.92975 5.82321 5.99999 6.00002 5.99999H7.33335V7.33332H3.33335C3.15654 7.33332 2.98697 7.40356 2.86195 7.52859C2.73693 7.65361 2.66669 7.82318 2.66669 7.99999V9.99999H1.33335C1.15654 9.99999 0.986973 10.0702 0.861949 10.1953C0.736925 10.3203 0.666687 10.4898 0.666687 10.6667V14.6667C0.666687 14.8435 0.736925 15.013 0.861949 15.1381C0.986973 15.2631 1.15654 15.3333 1.33335 15.3333H5.33335C5.51016 15.3333 5.67973 15.2631 5.80476 15.1381C5.92978 15.013 6.00002 14.8435 6.00002 14.6667V10.6667C6.00002 10.4898 5.92978 10.3203 5.80476 10.1953C5.67973 10.0702 5.51016 9.99999 5.33335 9.99999H4.00002V8.66666H12V9.99999H10.6667C10.4899 9.99999 10.3203 10.0702 10.1953 10.1953C10.0703 10.3203 10 10.4898 10 10.6667V14.6667C10 14.8435 10.0703 15.013 10.1953 15.1381C10.3203 15.2631 10.4899 15.3333 10.6667 15.3333H14.6667C14.8435 15.3333 15.0131 15.2631 15.1381 15.1381C15.2631 15.013 15.3334 14.8435 15.3334 14.6667V10.6667C15.3334 10.4898 15.2631 10.3203 15.1381 10.1953C15.0131 10.0702 14.8435 9.99999 14.6667 9.99999ZM4.66669 11.3333V14H2.00002V11.3333H4.66669ZM6.66669 4.66666V1.99999H9.33335V4.66666H6.66669ZM14 14H11.3334V11.3333H14V14Z" fill="currentcolor"/>
</g>
<defs>
<clipPath id="clip0_209_28">
<rect width="16" height="16" fill="white"/>
</clipPath>
</defs>
</svg>
