<svg width="16" height="16" viewBox="0 0 16 16" fill="none" xmlns="http://www.w3.org/2000/svg">
<path d="M8.00001 4.00001C7.8232 4.00001 7.65363 4.07025 7.52861 4.19527C7.40358 4.3203 7.33334 4.48987 7.33334 4.66668V11.3333C7.33334 11.5102 7.40358 11.6797 7.52861 11.8047C7.65363 11.9298 7.8232 12 8.00001 12C8.17682 12 8.34639 11.9298 8.47141 11.8047C8.59644 11.6797 8.66668 11.5102 8.66668 11.3333V4.66668C8.66668 4.48987 8.59644 4.3203 8.47141 4.19527C8.34639 4.07025 8.17682 4.00001 8.00001 4.00001ZM4.66668 8.00001C4.48987 8.00001 4.3203 8.07025 4.19527 8.19527C4.07025 8.3203 4.00001 8.48987 4.00001 8.66668V11.3333C4.00001 11.5102 4.07025 11.6797 4.19527 11.8047C4.3203 11.9298 4.48987 12 4.66668 12C4.84349 12 5.01306 11.9298 5.13808 11.8047C5.26311 11.6797 5.33334 11.5102 5.33334 11.3333V8.66668C5.33334 8.48987 5.26311 8.3203 5.13808 8.19527C5.01306 8.07025 4.84349 8.00001 4.66668 8.00001ZM11.3333 6.66668C11.1565 6.66668 10.987 6.73692 10.8619 6.86194C10.7369 6.98696 10.6667 7.15653 10.6667 7.33334V11.3333C10.6667 11.5102 10.7369 11.6797 10.8619 11.8047C10.987 11.9298 11.1565 12 11.3333 12C11.5102 12 11.6797 11.9298 11.8047 11.8047C11.9298 11.6797 12 11.5102 12 11.3333V7.33334C12 7.15653 11.9298 6.98696 11.8047 6.86194C11.6797 6.73692 11.5102 6.66668 11.3333 6.66668ZM12.6667 1.33334H3.33334C2.80291 1.33334 2.2942 1.54406 1.91913 1.91913C1.54406 2.2942 1.33334 2.80291 1.33334 3.33334V12.6667C1.33334 13.1971 1.54406 13.7058 1.91913 14.0809C2.2942 14.456 2.80291 14.6667 3.33334 14.6667H12.6667C13.1971 14.6667 13.7058 14.456 14.0809 14.0809C14.456 13.7058 14.6667 13.1971 14.6667 12.6667V3.33334C14.6667 2.80291 14.456 2.2942 14.0809 1.91913C13.7058 1.54406 13.1971 1.33334 12.6667 1.33334ZM13.3333 12.6667C13.3333 12.8435 13.2631 13.0131 13.1381 13.1381C13.0131 13.2631 12.8435 13.3333 12.6667 13.3333H3.33334C3.15653 13.3333 2.98696 13.2631 2.86194 13.1381C2.73691 13.0131 2.66668 12.8435 2.66668 12.6667V3.33334C2.66668 3.15653 2.73691 2.98696 2.86194 2.86194C2.98696 2.73691 3.15653 2.66668 3.33334 2.66668H12.6667C12.8435 2.66668 13.0131 2.73691 13.1381 2.86194C13.2631 2.98696 13.3333 3.15653 13.3333 3.33334V12.6667Z" fill="currentcolor"/>
</svg>
