<svg class="svg-icon" style="width: 1em;height: 1em;vertical-align: middle;fill: currentColor;overflow: hidden;" viewBox="0 0 1024 1024" version="1.1" xmlns="http://www.w3.org/2000/svg"><path d="M512 0a512 512 0 1 1 0 1024A512 512 0 0 1 512 0z m0 85.357714a426.642286 426.642286 0 1 0 0 853.284572A426.642286 426.642286 0 0 0 512 85.357714zM688.128 292.571429a35.986286 35.986286 0 0 1 25.526857 61.44L559.177143 508.928l154.331428 154.843429a35.913143 35.913143 0 1 1-50.834285 50.834285L508.342857 559.981714 354.011429 714.605714a35.986286 35.986286 0 0 1-50.980572-50.834285L457.581714 509.074286 303.030857 354.011429a35.986286 35.986286 0 0 1 51.053714-50.834286l154.331429 154.697143L662.674286 303.177143A35.693714 35.693714 0 0 1 688.128 292.571429z"  /></svg>