<svg width="138" height="40" viewBox="0 0 138 40" fill="none" xmlns="http://www.w3.org/2000/svg">
<g clip-path="url(#clip0_103_100)">
<path fill-rule="evenodd" clip-rule="evenodd" d="M26.5142 11.913C26.5142 9.76996 25.654 7.71466 24.1229 6.19925C22.5918 4.68391 20.5152 3.83252 18.3499 3.83252H17.9128C13.6452 3.83252 10.1855 7.25666 10.1855 11.4805V19.9936H18.3499C20.5152 19.9936 22.5918 19.1423 24.1229 17.6269C25.654 16.1114 26.5142 14.0561 26.5142 11.9131V11.913Z" fill="#FFBC86"/>
<path fill-rule="evenodd" clip-rule="evenodd" d="M29.78 26.4582C29.78 23.8865 28.7478 21.4202 26.9105 19.6017C25.0732 17.7833 22.5812 16.7616 19.9828 16.7616H19.668C17.1531 16.7616 14.7412 17.7504 12.9629 19.5104C11.1846 21.2705 10.1856 23.6576 10.1856 26.1467V36.1549H19.9828C22.5812 36.1549 25.0732 35.1333 26.9105 33.3148C28.7478 31.4963 29.78 29.03 29.78 26.4583V26.4582Z" fill="#FF8A2D"/>
<path fill-rule="evenodd" clip-rule="evenodd" d="M12.5077 19.9936H18.3499C20.5011 19.9936 22.5648 19.1535 24.0932 17.6561C22.8169 17.0723 21.416 16.7612 19.9828 16.7612H19.6679C17.153 16.7612 14.7411 17.7501 12.9629 19.5101C12.805 19.6666 12.6532 19.8276 12.5077 19.9936Z" fill="#FF9D4F"/>
</g>
<path d="M51.16 19.408C52.104 19.584 52.88 20.056 53.488 20.824C54.096 21.592 54.4 22.472 54.4 23.464C54.4 24.36 54.176 25.152 53.728 25.84C53.296 26.512 52.664 27.04 51.832 27.424C51 27.808 50.016 28 48.88 28H41.656V11.248H48.568C49.704 11.248 50.68 11.432 51.496 11.8C52.328 12.168 52.952 12.68 53.368 13.336C53.8 13.992 54.016 14.736 54.016 15.568C54.016 16.544 53.752 17.36 53.224 18.016C52.712 18.672 52.024 19.136 51.16 19.408ZM45.016 18.16H48.088C48.888 18.16 49.504 17.984 49.936 17.632C50.368 17.264 50.584 16.744 50.584 16.072C50.584 15.4 50.368 14.88 49.936 14.512C49.504 14.144 48.888 13.96 48.088 13.96H45.016V18.16ZM48.4 25.264C49.216 25.264 49.848 25.072 50.296 24.688C50.76 24.304 50.992 23.76 50.992 23.056C50.992 22.336 50.752 21.776 50.272 21.376C49.792 20.96 49.144 20.752 48.328 20.752H45.016V25.264H48.4ZM56.2139 21.304C56.2139 19.96 56.4779 18.768 57.0059 17.728C57.5499 16.688 58.2779 15.888 59.1899 15.328C60.1179 14.768 61.1499 14.488 62.2859 14.488C63.2779 14.488 64.1419 14.688 64.8779 15.088C65.6299 15.488 66.2299 15.992 66.6779 16.6V14.704H70.0619V28H66.6779V26.056C66.2459 26.68 65.6459 27.2 64.8779 27.616C64.1259 28.016 63.2539 28.216 62.2619 28.216C61.1419 28.216 60.1179 27.928 59.1899 27.352C58.2779 26.776 57.5499 25.968 57.0059 24.928C56.4779 23.872 56.2139 22.664 56.2139 21.304ZM66.6779 21.352C66.6779 20.536 66.5179 19.84 66.1979 19.264C65.8779 18.672 65.4459 18.224 64.9019 17.92C64.3579 17.6 63.7739 17.44 63.1499 17.44C62.5259 17.44 61.9499 17.592 61.4219 17.896C60.8939 18.2 60.4619 18.648 60.1259 19.24C59.8059 19.816 59.6459 20.504 59.6459 21.304C59.6459 22.104 59.8059 22.808 60.1259 23.416C60.4619 24.008 60.8939 24.464 61.4219 24.784C61.9659 25.104 62.5419 25.264 63.1499 25.264C63.7739 25.264 64.3579 25.112 64.9019 24.808C65.4459 24.488 65.8779 24.04 66.1979 23.464C66.5179 22.872 66.6779 22.168 66.6779 21.352ZM78.5515 14.488C79.5435 14.488 80.4155 14.688 81.1675 15.088C81.9195 15.472 82.5115 15.976 82.9435 16.6V14.704H86.3275V28.096C86.3275 29.328 86.0795 30.424 85.5835 31.384C85.0875 32.36 84.3435 33.128 83.3515 33.688C82.3595 34.264 81.1595 34.552 79.7515 34.552C77.8635 34.552 76.3115 34.112 75.0955 33.232C73.8955 32.352 73.2155 31.152 73.0555 29.632H76.3915C76.5675 30.24 76.9435 30.72 77.5195 31.072C78.1115 31.44 78.8235 31.624 79.6555 31.624C80.6315 31.624 81.4235 31.328 82.0315 30.736C82.6395 30.16 82.9435 29.28 82.9435 28.096V26.032C82.5115 26.656 81.9115 27.176 81.1435 27.592C80.3915 28.008 79.5275 28.216 78.5515 28.216C77.4315 28.216 76.4075 27.928 75.4795 27.352C74.5515 26.776 73.8155 25.968 73.2715 24.928C72.7435 23.872 72.4795 22.664 72.4795 21.304C72.4795 19.96 72.7435 18.768 73.2715 17.728C73.8155 16.688 74.5435 15.888 75.4555 15.328C76.3835 14.768 77.4155 14.488 78.5515 14.488ZM82.9435 21.352C82.9435 20.536 82.7835 19.84 82.4635 19.264C82.1435 18.672 81.7115 18.224 81.1675 17.92C80.6235 17.6 80.0395 17.44 79.4155 17.44C78.7915 17.44 78.2155 17.592 77.6875 17.896C77.1595 18.2 76.7275 18.648 76.3915 19.24C76.0715 19.816 75.9115 20.504 75.9115 21.304C75.9115 22.104 76.0715 22.808 76.3915 23.416C76.7275 24.008 77.1595 24.464 77.6875 24.784C78.2315 25.104 78.8075 25.264 79.4155 25.264C80.0395 25.264 80.6235 25.112 81.1675 24.808C81.7115 24.488 82.1435 24.04 82.4635 23.464C82.7835 22.872 82.9435 22.168 82.9435 21.352ZM91.3131 13.12C90.7211 13.12 90.2251 12.936 89.8251 12.568C89.4411 12.184 89.2491 11.712 89.2491 11.152C89.2491 10.592 89.4411 10.128 89.8251 9.76C90.2251 9.376 90.7211 9.184 91.3131 9.184C91.9051 9.184 92.3931 9.376 92.7771 9.76C93.1771 10.128 93.3771 10.592 93.3771 11.152C93.3771 11.712 93.1771 12.184 92.7771 12.568C92.3931 12.936 91.9051 13.12 91.3131 13.12ZM92.9691 14.704V28H89.6091V14.704H92.9691ZM99.6488 10.24V28H96.2888V10.24H99.6488ZM104.673 13.12C104.081 13.12 103.585 12.936 103.185 12.568C102.801 12.184 102.609 11.712 102.609 11.152C102.609 10.592 102.801 10.128 103.185 9.76C103.585 9.376 104.081 9.184 104.673 9.184C105.265 9.184 105.753 9.376 106.137 9.76C106.537 10.128 106.737 10.592 106.737 11.152C106.737 11.712 106.537 12.184 106.137 12.568C105.753 12.936 105.265 13.12 104.673 13.12ZM106.329 14.704V28H102.969V14.704H106.329ZM117.016 14.512C118.6 14.512 119.88 15.016 120.856 16.024C121.832 17.016 122.32 18.408 122.32 20.2V28H118.96V20.656C118.96 19.6 118.696 18.792 118.168 18.232C117.64 17.656 116.92 17.368 116.008 17.368C115.08 17.368 114.344 17.656 113.8 18.232C113.272 18.792 113.008 19.6 113.008 20.656V28H109.648V14.704H113.008V16.36C113.456 15.784 114.024 15.336 114.712 15.016C115.416 14.68 116.184 14.512 117.016 14.512ZM133.387 28L128.875 22.336V28H125.515V10.24H128.875V20.344L133.339 14.704H137.707L131.851 21.376L137.755 28H133.387Z" fill="#222222"/>
<defs>
<clipPath id="clip0_103_100">
<rect width="40" height="40" fill="white"/>
</clipPath>
</defs>
</svg>
