<svg width="50" height="50" viewBox="0 0 50 50" fill="none" xmlns="http://www.w3.org/2000/svg">
<g clip-path="url(#clip0_209_14)">
<path fill-rule="evenodd" clip-rule="evenodd" d="M33.1427 14.8912C33.1427 12.2124 32.0675 9.6433 30.1536 7.74903C28.2398 5.85486 25.644 4.79062 22.9374 4.79062H22.391C17.0565 4.79062 12.7319 9.07079 12.7319 14.3505V24.9919H22.9374C25.644 24.9919 28.2398 23.9278 30.1536 22.0335C32.0675 20.1393 33.1427 17.5701 33.1427 14.8913V14.8912Z" fill="#FFBC86"/>
<path fill-rule="evenodd" clip-rule="evenodd" d="M37.225 33.0727C37.225 29.8581 35.9347 26.7751 33.6381 24.502C31.3414 22.229 28.2265 20.9519 24.9785 20.9519H24.5849C21.4414 20.9519 18.4265 22.1879 16.2037 24.388C13.9808 26.588 12.732 29.5718 12.732 32.6833V45.1936H24.9785C28.2265 45.1936 31.3414 43.9166 33.6381 41.6435C35.9347 39.3703 37.225 36.2874 37.225 33.0728V33.0727Z" fill="#FF8A2D"/>
<path fill-rule="evenodd" clip-rule="evenodd" d="M15.6346 24.992H22.9373C25.6263 24.992 28.206 23.9418 30.1165 22.0701C28.5211 21.3403 26.77 20.9515 24.9784 20.9515H24.5848C21.4413 20.9515 18.4264 22.1875 16.2036 24.3877C16.0062 24.5832 15.8165 24.7845 15.6346 24.992Z" fill="#FF9D4F"/>
</g>
<defs>
<clipPath id="clip0_209_14">
<rect width="50" height="50" fill="white"/>
</clipPath>
</defs>
</svg>
