<svg width="480" height="976" viewBox="0 0 480 976" fill="none" xmlns="http://www.w3.org/2000/svg">
<path d="M0.833495 191.73L0.833496 221.976C0.833496 222.791 0.871206 223.538 0.934163 224.089C0.965263 224.361 1.00447 224.603 1.054 224.786C1.0777 224.873 1.11128 224.977 1.16265 225.069C1.1882 225.114 1.23141 225.182 1.30016 225.243C1.37193 225.306 1.49647 225.384 1.66614 225.384L11.6675 225.384C11.8372 225.384 11.9617 225.306 12.0335 225.243C12.1022 225.182 12.1455 225.114 12.171 225.069C12.2224 224.977 12.256 224.873 12.2797 224.786C12.3292 224.603 12.3684 224.361 12.3995 224.089C12.4625 223.538 12.5002 222.791 12.5002 221.976L12.5002 191.73C12.5002 190.914 12.4625 190.168 12.3995 189.617C12.3684 189.345 12.3292 189.103 12.2797 188.92C12.256 188.833 12.2224 188.729 12.171 188.637C12.1455 188.592 12.1022 188.524 12.0335 188.463C11.9617 188.4 11.8372 188.322 11.6675 188.322L1.66614 188.322C1.49646 188.322 1.37193 188.4 1.30015 188.463C1.23141 188.524 1.1882 188.592 1.16265 188.637C1.11127 188.729 1.07769 188.833 1.05399 188.92C1.00447 189.103 0.965261 189.345 0.934162 189.617C0.871205 190.168 0.833495 190.914 0.833495 191.73Z" fill="url(#paint0_linear_31_1354)" stroke="url(#paint1_linear_31_1354)"/>
<path d="M0.833493 265.534L0.833496 327.144C0.833496 328.787 0.870842 330.277 0.931711 331.362C0.962042 331.902 0.998713 332.35 1.04101 332.669C1.06172 332.825 1.0861 332.968 1.11692 333.081C1.13126 333.133 1.15469 333.208 1.19456 333.28C1.21429 333.316 1.25149 333.376 1.31397 333.432C1.37927 333.491 1.49913 333.569 1.66614 333.569L11.6675 333.569C11.8345 333.569 11.9544 333.491 12.0197 333.432C12.0822 333.376 12.1194 333.316 12.1391 333.28C12.179 333.208 12.2024 333.133 12.2167 333.081C12.2476 332.968 12.2719 332.825 12.2927 332.669C12.3349 332.35 12.3716 331.902 12.402 331.362C12.4628 330.277 12.5002 328.787 12.5002 327.144L12.5002 265.534C12.5002 263.892 12.4628 262.401 12.4019 261.317C12.3716 260.777 12.3349 260.328 12.2927 260.009C12.2719 259.853 12.2476 259.71 12.2167 259.598C12.2024 259.545 12.179 259.47 12.1391 259.398C12.1194 259.363 12.0822 259.303 12.0197 259.246C11.9544 259.187 11.8345 259.11 11.6675 259.11L1.66613 259.11C1.49913 259.11 1.37927 259.187 1.31397 259.246C1.25148 259.303 1.21428 259.363 1.19455 259.398C1.15468 259.47 1.13126 259.545 1.11692 259.598C1.0861 259.71 1.06172 259.853 1.041 260.009C0.998709 260.328 0.962039 260.777 0.931708 261.317C0.870839 262.401 0.833493 263.892 0.833493 265.534Z" fill="url(#paint2_linear_31_1354)" stroke="url(#paint3_linear_31_1354)"/>
<path d="M0.833493 360.363L0.833496 421.973C0.833496 423.616 0.870842 425.106 0.931711 426.19C0.962042 426.731 0.998713 427.179 1.04101 427.498C1.06172 427.654 1.0861 427.797 1.11692 427.909C1.13126 427.962 1.15469 428.037 1.19456 428.109C1.21429 428.144 1.25149 428.204 1.31397 428.261C1.37927 428.32 1.49913 428.397 1.66614 428.397L11.6675 428.397C11.8345 428.397 11.9544 428.32 12.0197 428.261C12.0822 428.204 12.1194 428.144 12.1391 428.109C12.179 428.037 12.2024 427.962 12.2167 427.909C12.2476 427.797 12.2719 427.654 12.2927 427.498C12.3349 427.179 12.3716 426.731 12.402 426.19C12.4628 425.106 12.5002 423.616 12.5002 421.973L12.5002 360.363C12.5002 358.721 12.4628 357.23 12.4019 356.146C12.3716 355.605 12.3349 355.157 12.2927 354.838C12.2719 354.682 12.2476 354.539 12.2167 354.427C12.2024 354.374 12.179 354.299 12.1391 354.227C12.1194 354.192 12.0822 354.132 12.0197 354.075C11.9544 354.016 11.8345 353.939 11.6675 353.939L1.66613 353.939C1.49913 353.939 1.37927 354.016 1.31397 354.075C1.25148 354.132 1.21428 354.192 1.19455 354.227C1.15468 354.299 1.13126 354.374 1.11692 354.427C1.0861 354.539 1.06172 354.682 1.041 354.838C0.998709 355.157 0.962039 355.605 0.931708 356.146C0.870839 357.23 0.833493 358.721 0.833493 360.363Z" fill="url(#paint4_linear_31_1354)" stroke="url(#paint5_linear_31_1354)"/>
<path d="M466.167 320.854L466.167 416.071C466.167 418.608 466.18 420.899 466.201 422.556C466.211 423.385 466.224 424.057 466.238 424.524C466.245 424.756 466.253 424.942 466.261 425.072C466.265 425.135 466.269 425.194 466.275 425.241C466.278 425.262 466.283 425.298 466.292 425.336C466.296 425.351 466.308 425.397 466.334 425.448C466.346 425.473 466.375 425.526 466.429 425.58C466.485 425.635 466.605 425.726 466.783 425.726L478.551 425.726C478.729 425.726 478.849 425.635 478.904 425.58C478.959 425.526 478.988 425.473 479 425.448C479.026 425.397 479.038 425.351 479.042 425.336C479.051 425.298 479.056 425.262 479.059 425.241C479.065 425.194 479.069 425.135 479.073 425.072C479.081 424.942 479.089 424.756 479.096 424.524C479.11 424.058 479.123 423.385 479.133 422.557C479.154 420.899 479.167 418.608 479.167 416.071L479.167 320.854C479.167 318.318 479.154 316.026 479.133 314.369C479.123 313.54 479.11 312.868 479.096 312.401C479.089 312.169 479.081 311.983 479.073 311.853C479.069 311.79 479.065 311.731 479.059 311.683C479.056 311.663 479.051 311.627 479.042 311.588C479.038 311.573 479.026 311.528 479 311.477C478.988 311.452 478.959 311.398 478.905 311.345C478.849 311.289 478.729 311.199 478.551 311.199L466.783 311.199C466.605 311.199 466.485 311.289 466.429 311.344C466.375 311.398 466.346 311.452 466.334 311.477C466.308 311.528 466.296 311.573 466.292 311.588C466.283 311.627 466.278 311.663 466.275 311.683C466.269 311.731 466.265 311.79 466.261 311.853C466.253 311.983 466.245 312.169 466.238 312.401C466.224 312.867 466.211 313.54 466.201 314.368C466.18 316.026 466.167 318.317 466.167 320.854Z" fill="url(#paint6_linear_31_1354)" stroke="url(#paint7_linear_31_1354)"/>
<path d="M393.44 1.83569H86.5613C41.4877 1.83569 4.94824 38.4377 4.94824 83.5886V892.411C4.94824 937.562 41.4877 974.164 86.5613 974.164H393.44C438.513 974.164 475.053 937.562 475.053 892.411V83.5886C475.053 38.4377 438.513 1.83569 393.44 1.83569Z" fill="url(#paint8_angular_31_1354)" stroke="#3A3A3A" stroke-width="0.999999" stroke-linecap="round" stroke-linejoin="round"/>
<path d="M392.057 7.55664H87.9439C46.0185 7.55664 12.0312 41.6021 12.0312 83.5992V892.401C12.0312 934.398 46.0185 968.443 87.9439 968.443H392.057C433.982 968.443 467.969 934.398 467.969 892.401V83.5992C467.969 41.6021 433.982 7.55664 392.057 7.55664Z" fill="black"/>
<path d="M392.057 7.55664H87.9439C46.0185 7.55664 12.0312 41.6021 12.0312 83.5992V892.401C12.0312 934.398 46.0185 968.443 87.9439 968.443H392.057C433.982 968.443 467.969 934.398 467.969 892.401V83.5992C467.969 41.6021 433.982 7.55664 392.057 7.55664Z" fill="black"/>
<path d="M376.466 1.83569H370.121V7.55665H376.466V1.83569Z" fill="#7D7E7F"/>
<path d="M475.053 110.329V103.973H467.969V110.329H475.053Z" fill="#7D7E7F"/>
<path d="M4.94824 110.329V103.973H12.0315V110.329H4.94824Z" fill="#7D7E7F"/>
<path d="M103.535 974.164H109.88V968.443H103.535V974.164Z" fill="#7D7E7F"/>
<path d="M4.94824 865.671V872.027H12.0315V865.671H4.94824Z" fill="#7D7E7F"/>
<path d="M475.053 865.671V872.027H467.969V865.671H475.053Z" fill="#7D7E7F"/>
<mask id="mask0_31_1354" style="mask-type:alpha" maskUnits="userSpaceOnUse" x="25" y="21" width="430" height="933">
<path d="M397.06 21.5H82.9403C50.9407 21.5 25 47.4819 25 79.5322V895.468C25 927.518 50.9407 953.5 82.9403 953.5H397.06C429.059 953.5 455 927.518 455 895.468V79.5322C455 47.4819 429.059 21.5 397.06 21.5Z" fill="white"/>
</mask>
<g mask="url(#mask0_31_1354)">
<rect width="430" height="932" transform="translate(25 21.5)" fill="white"/>
<path d="M83.9688 60H85.9844V48.7266H83.9766L81.0312 50.7969V52.6953L83.8359 50.7109H83.9688V60ZM93.25 60.2812C95.9297 60.2812 97.5547 58.0078 97.5547 54.3672V54.3516C97.5547 50.7109 95.9297 48.4453 93.25 48.4453C90.5703 48.4453 88.9609 50.7109 88.9609 54.3516V54.3672C88.9609 58.0078 90.5703 60.2812 93.25 60.2812ZM93.25 58.6484C91.8125 58.6484 90.9922 57.0391 90.9922 54.3672V54.3516C90.9922 51.6797 91.8125 50.0859 93.25 50.0859C94.6875 50.0859 95.5234 51.6797 95.5234 54.3516V54.3672C95.5234 57.0391 94.6875 58.6484 93.25 58.6484ZM101.133 52.6953C101.852 52.6953 102.375 52.1484 102.375 51.4609C102.375 50.7656 101.852 50.2266 101.133 50.2266C100.422 50.2266 99.8906 50.7656 99.8906 51.4609C99.8906 52.1484 100.422 52.6953 101.133 52.6953ZM101.133 58.4922C101.852 58.4922 102.375 57.9531 102.375 57.2578C102.375 56.5625 101.852 56.0234 101.133 56.0234C100.422 56.0234 99.8906 56.5625 99.8906 57.2578C99.8906 57.9531 100.422 58.4922 101.133 58.4922ZM109 60.2812C111.68 60.2812 113.305 58.0078 113.305 54.3672V54.3516C113.305 50.7109 111.68 48.4453 109 48.4453C106.32 48.4453 104.711 50.7109 104.711 54.3516V54.3672C104.711 58.0078 106.32 60.2812 109 60.2812ZM109 58.6484C107.562 58.6484 106.742 57.0391 106.742 54.3672V54.3516C106.742 51.6797 107.562 50.0859 109 50.0859C110.438 50.0859 111.273 51.6797 111.273 54.3516V54.3672C111.273 57.0391 110.438 58.6484 109 58.6484ZM119.641 60.2812C122.32 60.2812 123.945 58.0078 123.945 54.3672V54.3516C123.945 50.7109 122.32 48.4453 119.641 48.4453C116.961 48.4453 115.352 50.7109 115.352 54.3516V54.3672C115.352 58.0078 116.961 60.2812 119.641 60.2812ZM119.641 58.6484C118.203 58.6484 117.383 57.0391 117.383 54.3672V54.3516C117.383 51.6797 118.203 50.0859 119.641 50.0859C121.078 50.0859 121.914 51.6797 121.914 54.3516V54.3672C121.914 57.0391 121.078 58.6484 119.641 58.6484Z" fill="#111111"/>
<g clip-path="url(#clip0_31_1354)">
<path fill-rule="evenodd" clip-rule="evenodd" d="M359.149 48.5C358.597 48.5 358.149 48.9477 358.149 49.5V59.5C358.149 60.0523 358.597 60.5 359.149 60.5H360.5C361.052 60.5 361.5 60.0523 361.5 59.5V49.5C361.5 48.9477 361.052 48.5 360.5 48.5H359.149ZM353.6 50.9C353.047 50.9 352.6 51.3477 352.6 51.9V59.5C352.6 60.0523 353.047 60.5 353.6 60.5H354.95C355.503 60.5 355.95 60.0523 355.95 59.5V51.9C355.95 51.3477 355.503 50.9 354.95 50.9H353.6ZM347.05 54.5C347.05 53.9477 347.498 53.5 348.05 53.5H349.401C349.953 53.5 350.401 53.9477 350.401 54.5V59.5C350.401 60.0523 349.953 60.5 349.401 60.5H348.05C347.498 60.5 347.05 60.0523 347.05 59.5V54.5ZM342.5 55.9C341.948 55.9 341.5 56.3477 341.5 56.9V59.5C341.5 60.0523 341.948 60.5 342.5 60.5H343.851C344.403 60.5 344.851 60.0523 344.851 59.5V56.9C344.851 56.3477 344.403 55.9 343.851 55.9H342.5Z" fill="#111111"/>
</g>
<path d="M373.509 56.8274C374.227 56.8274 374.925 57.029 375.539 57.4136L375.788 57.5693C375.977 57.6875 376.011 57.9639 375.856 58.1289L373.729 60.3955C373.598 60.5347 373.387 60.5347 373.256 60.3955L371.143 58.1435C370.989 57.9792 371.021 57.7042 371.208 57.5852L371.454 57.4287C372.075 57.0344 372.781 56.8274 373.509 56.8274Z" fill="#111111"/>
<path d="M373.509 52.6638C375.295 52.6638 377.01 53.2971 378.407 54.4699L378.604 54.6356C378.762 54.7678 378.776 55.0168 378.634 55.1678L377.364 56.521C377.247 56.6461 377.061 56.6605 376.928 56.5547L376.773 56.4318C375.83 55.6823 374.692 55.2802 373.509 55.2802C372.318 55.2802 371.174 55.6873 370.227 56.4454L370.072 56.5694C369.939 56.6761 369.753 56.662 369.635 56.5365L368.366 55.1838C368.224 55.0332 368.238 54.7848 368.394 54.6524L368.591 54.4865C369.991 53.3033 371.714 52.6638 373.509 52.6638Z" fill="#111111"/>
<path d="M373.509 48.5C376.343 48.5 379.054 49.5687 381.2 51.5275L381.383 51.6947C381.531 51.8299 381.54 52.0707 381.402 52.2176L380.137 53.5663C380.014 53.697 379.818 53.7062 379.685 53.5874L379.528 53.4474C377.839 51.9377 375.722 51.1164 373.509 51.1164C371.288 51.1164 369.164 51.9433 367.472 53.4625L367.315 53.6033C367.183 53.7225 366.986 53.7136 366.863 53.5827L365.598 52.2341C365.46 52.0874 365.469 51.847 365.616 51.7118L365.799 51.5445C367.947 49.5751 370.666 48.5 373.509 48.5Z" fill="#111111"/>
<rect x="387.536" y="49.6538" width="21.3818" height="9.69231" rx="1.33" fill="#111111"/>
<path opacity="0.4" fill-rule="evenodd" clip-rule="evenodd" d="M391.1 48.5H405.355C406.351 48.5 407.038 48.5008 407.572 48.5444C408.094 48.587 408.38 48.6655 408.59 48.7725C409.06 49.0122 409.442 49.3946 409.682 49.865C409.789 50.0749 409.868 50.3608 409.91 50.8826C409.954 51.4161 409.955 52.1034 409.955 53.1V55.9C409.955 56.8966 409.954 57.5839 409.91 58.1174C409.868 58.6392 409.789 58.9251 409.682 59.135C409.442 59.6054 409.06 59.9878 408.59 60.2275C408.38 60.3345 408.094 60.413 407.572 60.4556C407.038 60.4992 406.351 60.5 405.355 60.5H391.1C390.103 60.5 389.416 60.4992 388.883 60.4556C388.361 60.413 388.075 60.3345 387.865 60.2275C387.395 59.9878 387.012 59.6054 386.772 59.135C386.666 58.9251 386.587 58.6392 386.544 58.1174C386.501 57.5839 386.5 56.8966 386.5 55.9V53.1C386.5 52.1034 386.501 51.4161 386.544 50.8826C386.587 50.3608 386.666 50.0749 386.772 49.865C387.012 49.3946 387.395 49.0122 387.865 48.7725C388.075 48.6655 388.361 48.587 388.883 48.5444C389.416 48.5008 390.103 48.5 391.1 48.5ZM385.5 53.1C385.5 51.1398 385.5 50.1597 385.881 49.411C386.217 48.7525 386.752 48.217 387.411 47.8815C388.16 47.5 389.14 47.5 391.1 47.5H405.355C407.315 47.5 408.295 47.5 409.044 47.8815C409.702 48.217 410.238 48.7525 410.573 49.411C410.955 50.1597 410.955 51.1398 410.955 53.1V55.9C410.955 57.8602 410.955 58.8403 410.573 59.589C410.238 60.2475 409.702 60.783 409.044 61.1185C408.295 61.5 407.315 61.5 405.355 61.5H391.1C389.14 61.5 388.16 61.5 387.411 61.1185C386.752 60.783 386.217 60.2475 385.881 59.589C385.5 58.8403 385.5 57.8602 385.5 55.9V53.1ZM411.973 56.6538C412.816 56.4385 413.5 55.6895 413.5 54.5C413.5 53.3105 412.816 52.5615 411.973 52.3462L411.973 54.5L411.973 56.6538Z" fill="#111111"/>
</g>
<path d="M188.272 7.5564C193.57 7.5564 193.433 8.64888 194.53 9.88851C195.33 10.7926 196.361 11.0807 198.39 11.0807H281.611C283.64 11.0807 284.668 10.7926 285.468 9.88851C286.565 8.64888 286.43 7.5564 291.728 7.5564H188.272Z" fill="url(#paint9_linear_31_1354)"/>
<path d="M288.12 34.3391H191.88C180.608 34.3391 171.47 43.4923 171.47 54.7834C171.47 66.0745 180.608 75.2277 191.88 75.2277H288.12C299.392 75.2277 308.53 66.0745 308.53 54.7834C308.53 43.4923 299.392 34.3391 288.12 34.3391Z" fill="black"/>
<path d="M289.015 62.902C293.491 62.902 297.12 59.2669 297.12 54.7828C297.12 50.2987 293.491 46.6636 289.015 46.6636C284.538 46.6636 280.909 50.2987 280.909 54.7828C280.909 59.2669 284.538 62.902 289.015 62.902Z" fill="#0A0A0A"/>
<path d="M289.015 59.7908C291.776 59.7908 294.014 57.5486 294.014 54.7827C294.014 52.0168 291.776 49.7747 289.015 49.7747C286.253 49.7747 284.015 52.0168 284.015 54.7827C284.015 57.5486 286.253 59.7908 289.015 59.7908Z" fill="#0A0D13"/>
<path d="M289.014 58.5985C291.118 58.5985 292.824 56.8902 292.824 54.7828C292.824 52.6754 291.118 50.967 289.014 50.967C286.911 50.967 285.205 52.6754 285.205 54.7828C285.205 56.8902 286.911 58.5985 289.014 58.5985Z" fill="#091427"/>
<g filter="url(#filter0_f_31_1354)">
<path fill-rule="evenodd" clip-rule="evenodd" d="M286.392 52.23C285.941 52.2776 285.299 52.9682 285.251 54.3257C285.204 55.6831 285.798 56.4214 286.131 56.4214C286.464 56.4214 287.843 54.4447 286.392 52.23Z" fill="#235A91" fill-opacity="0.556075"/>
</g>
<g filter="url(#filter1_f_31_1354)">
<path fill-rule="evenodd" clip-rule="evenodd" d="M289.636 51.7546C288.924 51.9742 288.787 53.1272 288.814 53.786C288.842 54.4448 289.773 56.1743 290.897 55.79C292.021 55.4056 292.212 53.9782 291.747 53.0174C291.281 52.0566 290.431 51.3703 289.636 51.7546Z" fill="#235A91" fill-opacity="0.556075"/>
</g>
<defs>
<filter id="filter0_f_31_1354" x="285.033" y="52.0143" width="2.22575" height="4.62272" filterUnits="userSpaceOnUse" color-interpolation-filters="sRGB">
<feFlood flood-opacity="0" result="BackgroundImageFix"/>
<feBlend mode="normal" in="SourceGraphic" in2="BackgroundImageFix" result="shape"/>
<feGaussianBlur stdDeviation="0.107828" result="effect1_foregroundBlur_31_1354"/>
</filter>
<filter id="filter1_f_31_1354" x="288.595" y="51.4303" width="3.60319" height="4.63029" filterUnits="userSpaceOnUse" color-interpolation-filters="sRGB">
<feFlood flood-opacity="0" result="BackgroundImageFix"/>
<feBlend mode="normal" in="SourceGraphic" in2="BackgroundImageFix" result="shape"/>
<feGaussianBlur stdDeviation="0.107828" result="effect1_foregroundBlur_31_1354"/>
</filter>
<linearGradient id="paint0_linear_31_1354" x1="6.66683" y1="224.884" x2="6.66683" y2="188.822" gradientUnits="userSpaceOnUse">
<stop stop-color="#7E7E7C"/>
<stop offset="0.066468" stop-color="#80807E"/>
<stop offset="0.0824877" stop-color="#E7E7E7"/>
<stop offset="0.306859" stop-color="#A1A19F"/>
<stop offset="0.343067" stop-color="#706F6B"/>
<stop offset="0.659198" stop-color="#2D2C29"/>
<stop offset="0.743629" stop-color="#63625D"/>
<stop offset="0.912967" stop-color="#76756E"/>
<stop offset="1" stop-color="#373631"/>
</linearGradient>
<linearGradient id="paint1_linear_31_1354" x1="1.3335" y1="206.853" x2="12.0002" y2="206.853" gradientUnits="userSpaceOnUse">
<stop stop-color="#474643"/>
<stop offset="1" stop-color="#5E5E5E"/>
</linearGradient>
<linearGradient id="paint2_linear_31_1354" x1="6.66683" y1="333.069" x2="6.66683" y2="259.61" gradientUnits="userSpaceOnUse">
<stop stop-color="#7E7E7C"/>
<stop offset="0.066468" stop-color="#80807E"/>
<stop offset="0.0824877" stop-color="#E7E7E7"/>
<stop offset="0.306859" stop-color="#A1A19F"/>
<stop offset="0.343067" stop-color="#706F6B"/>
<stop offset="0.659198" stop-color="#2D2C29"/>
<stop offset="0.743629" stop-color="#63625D"/>
<stop offset="0.912967" stop-color="#76756E"/>
<stop offset="1" stop-color="#373631"/>
</linearGradient>
<linearGradient id="paint3_linear_31_1354" x1="1.33349" y1="296.339" x2="12.0002" y2="296.339" gradientUnits="userSpaceOnUse">
<stop stop-color="#474643"/>
<stop offset="1" stop-color="#5E5E5E"/>
</linearGradient>
<linearGradient id="paint4_linear_31_1354" x1="6.66683" y1="427.897" x2="6.66683" y2="354.439" gradientUnits="userSpaceOnUse">
<stop stop-color="#7E7E7C"/>
<stop offset="0.066468" stop-color="#80807E"/>
<stop offset="0.0824877" stop-color="#E7E7E7"/>
<stop offset="0.306859" stop-color="#A1A19F"/>
<stop offset="0.343067" stop-color="#706F6B"/>
<stop offset="0.659198" stop-color="#2D2C29"/>
<stop offset="0.743629" stop-color="#63625D"/>
<stop offset="0.912967" stop-color="#76756E"/>
<stop offset="1" stop-color="#373631"/>
</linearGradient>
<linearGradient id="paint5_linear_31_1354" x1="1.33349" y1="391.168" x2="12.0002" y2="391.168" gradientUnits="userSpaceOnUse">
<stop stop-color="#474643"/>
<stop offset="1" stop-color="#5E5E5E"/>
</linearGradient>
<linearGradient id="paint6_linear_31_1354" x1="472.667" y1="425.226" x2="472.667" y2="311.699" gradientUnits="userSpaceOnUse">
<stop stop-color="#7E7E7C"/>
<stop offset="0.066468" stop-color="#80807E"/>
<stop offset="0.0824877" stop-color="#E7E7E7"/>
<stop offset="0.306859" stop-color="#A1A19F"/>
<stop offset="0.343067" stop-color="#706F6B"/>
<stop offset="0.659198" stop-color="#2D2C29"/>
<stop offset="0.743629" stop-color="#63625D"/>
<stop offset="0.912967" stop-color="#76756E"/>
<stop offset="1" stop-color="#373631"/>
</linearGradient>
<linearGradient id="paint7_linear_31_1354" x1="466.667" y1="368.462" x2="478.667" y2="368.462" gradientUnits="userSpaceOnUse">
<stop stop-color="#474643"/>
<stop offset="1" stop-color="#5E5E5E"/>
</linearGradient>
<radialGradient id="paint8_angular_31_1354" cx="0" cy="0" r="1" gradientUnits="userSpaceOnUse" gradientTransform="translate(232.949 488) rotate(90) scale(486.164 228.001)">
<stop offset="0.362857" stop-color="#E6EAED"/>
<stop offset="0.370506" stop-color="#FAFBFC"/>
<stop offset="0.865074" stop-color="#D7E0E7"/>
<stop offset="0.871776" stop-color="#F7F8F9"/>
</radialGradient>
<linearGradient id="paint9_linear_31_1354" x1="198.464" y1="7.5564" x2="198.464" y2="11.0807" gradientUnits="userSpaceOnUse">
<stop/>
<stop offset="1" stop-color="#212121"/>
</linearGradient>
<clipPath id="clip0_31_1354">
<rect width="20" height="14" fill="white" transform="translate(341.5 47.5)"/>
</clipPath>
</defs>
</svg>
